<?xml version="1.0" encoding="utf-8"?><svg viewBox="0 0 28 28" xmlns="http://www.w3.org/2000/svg" xmlns:xlink="http://www.w3.org/1999/xlink"><style>:root>svg{display:none}:root>svg:target{display:block}</style><svg viewBox="0 0 22 22" id="datas" xmlns="http://www.w3.org/2000/svg"><path fill-rule="evenodd" clip-rule="evenodd" d="M8.333 21.667h5.334V.333H8.333v21.334Zm-8 0h5.334V11H.333v10.667Zm16 0V7h5.334v14.667h-5.334Z"/></svg><svg viewBox="0 0 20 28" id="geo" xmlns="http://www.w3.org/2000/svg"><path fill-rule="evenodd" clip-rule="evenodd" d="M.667 10A9.326 9.326 0 0 1 10 .667 9.326 9.326 0 0 1 19.333 10c0 7-9.333 17.333-9.333 17.333S.667 17 .667 10Zm6 0A3.335 3.335 0 0 0 10 13.333a3.335 3.335 0 0 0 0-6.666A3.335 3.335 0 0 0 6.667 10Z"/></svg><svg viewBox="0 0 28 26" id="port" xmlns="http://www.w3.org/2000/svg"><path fill-rule="evenodd" clip-rule="evenodd" d="M19.333 6h5.334a2.657 2.657 0 0 1 2.666 2.667v14.666A2.657 2.657 0 0 1 24.667 26H3.333a2.657 2.657 0 0 1-2.666-2.667L.68 8.667A2.646 2.646 0 0 1 3.333 6h5.334V3.333A2.657 2.657 0 0 1 11.333.667h5.334a2.657 2.657 0 0 1 2.666 2.666V6Zm-8 0h5.334V3.333h-5.334V6Z"/></svg><svg viewBox="0 0 28 26" id="star" xmlns="http://www.w3.org/2000/svg"><path d="m22.24 26-2.18-9.372 7.273-6.303-9.588-.822L14 .667l-3.745 8.836-9.588.822 7.273 6.303L5.76 26 14 21.03 22.24 26Z"/></svg></svg>